<svg width="38" height="38" viewBox="0 0 38 38" fill="none" xmlns="http://www.w3.org/2000/svg">
<path d="M31.0865 16.5432C31.0865 8.51122 24.5753 2 16.5432 2C8.51122 2 2 8.51122 2 16.5432C2 24.5752 8.51122 31.0864 16.5432 31.0864" stroke="black" stroke-width="2.29758" stroke-linecap="round" stroke-linejoin="round"/>
<path d="M2.00012 16.5432H31.0866" stroke="black" stroke-width="2.29758" stroke-linecap="round" stroke-linejoin="round"/>
<path d="M16.5432 31.0864C13.1832 26.9548 11.2243 21.8615 10.9496 16.5432C11.2243 11.2249 13.1832 6.13174 16.5432 2C19.903 6.13174 21.8619 11.2249 22.1367 16.5432C22.075 17.7373 21.9284 18.92 21.7002 20.0831" stroke="black" stroke-width="2.29758" stroke-linecap="round" stroke-linejoin="round"/>
<path d="M31.5245 21.905H26.3232V26.3227H21.9058V31.5239H26.3232V35.9413H31.5245V31.5239H35.942V26.3227H31.5245V21.905Z" stroke="black" stroke-width="2.29758" stroke-linecap="round" stroke-linejoin="round"/>
</svg>
