<svg width="33" height="24" viewBox="0 0 33 24" fill="none" xmlns="http://www.w3.org/2000/svg">
<g id="icon-youtube">
<path id="Vector" d="M30.2725 5.03646C30.1158 4.41047 29.7967 3.83692 29.3474 3.37374C28.8981 2.91055 28.3345 2.57413 27.7136 2.39846C25.4449 1.84448 16.3702 1.84448 16.3702 1.84448C16.3702 1.84448 7.2955 1.84448 5.02682 2.45122C4.4059 2.62689 3.84233 2.96331 3.39304 3.4265C2.94375 3.88968 2.62465 4.46323 2.46797 5.08922C2.05277 7.3916 1.84967 9.72723 1.86123 12.0667C1.84643 14.4238 2.04954 16.7773 2.46797 19.097C2.6407 19.7035 2.96695 20.2553 3.4152 20.6989C3.86344 21.1425 4.41853 21.463 5.02682 21.6295C7.2955 22.2362 16.3702 22.2362 16.3702 22.2362C16.3702 22.2362 25.4449 22.2362 27.7136 21.6295C28.3345 21.4538 28.8981 21.1174 29.3474 20.6542C29.7967 20.191 30.1158 19.6174 30.2725 18.9915C30.6844 16.7064 30.8875 14.3886 30.8792 12.0667C30.894 9.70961 30.6909 7.35618 30.2725 5.03646Z" stroke="white" stroke-width="2.3" stroke-linecap="round" stroke-linejoin="round"/>
<path id="Vector_2" d="M13.4023 16.3799L20.9866 12.0668L13.4023 7.75366V16.3799Z" stroke="white" stroke-width="2.3" stroke-linecap="round" stroke-linejoin="round"/>
</g>
</svg>
