<svg width="38" height="38" viewBox="0 0 38 38" fill="none" xmlns="http://www.w3.org/2000/svg">
<path d="M1.99994 22.6797V36.4652" stroke="black" stroke-width="2.29758" stroke-linecap="round" stroke-linejoin="round"/>
<path d="M1.99994 34.1676H24.9758C24.9758 32.9488 24.4916 31.7801 23.6298 30.9184C22.7681 30.0565 21.5992 29.5725 20.3806 29.5725H14.6366C14.6366 28.3537 14.1525 27.185 13.2907 26.3232C12.429 25.4613 11.2602 24.9773 10.0415 24.9773H1.99994" stroke="black" stroke-width="2.29758" stroke-linecap="round" stroke-linejoin="round"/>
<path d="M10.0414 29.5725H14.6366" stroke="black" stroke-width="2.29758" stroke-linecap="round" stroke-linejoin="round"/>
<path d="M36.4636 10.0415C36.4636 9.73686 36.3426 9.44466 36.1271 9.22922C35.9118 9.01378 35.6195 8.89275 35.3148 8.89275H29.5709V3.14879C29.5709 2.84412 29.4499 2.55191 29.2344 2.33647C29.019 2.12103 28.7268 2 28.4221 2H23.8269C23.5223 2 23.23 2.12103 23.0147 2.33647C22.7992 2.55191 22.6781 2.84412 22.6781 3.14879V8.89275H16.9342C16.6295 8.89275 16.3373 9.01378 16.1219 9.22922C15.9064 9.44466 15.7854 9.73686 15.7854 10.0415V14.6367C15.7854 14.9414 15.9064 15.2336 16.1219 15.449C16.3373 15.6645 16.6295 15.7855 16.9342 15.7855H22.6781V21.5294C22.6781 21.8341 22.7992 22.1264 23.0147 22.3417C23.23 22.5572 23.5223 22.6782 23.8269 22.6782H28.4221C28.7268 22.6782 29.019 22.5572 29.2344 22.3417C29.4499 22.1264 29.5709 21.8341 29.5709 21.5294V15.7855H35.3148C35.6195 15.7855 35.9118 15.6645 36.1271 15.449C36.3426 15.2336 36.4636 14.9414 36.4636 14.6367V10.0415Z" stroke="black" stroke-width="2.29758" stroke-linecap="round" stroke-linejoin="round"/>
</svg>
