<svg width="24" height="24" viewBox="0 0 24 24" fill="none" xmlns="http://www.w3.org/2000/svg">
<g id="icon-instagram">
<path id="Vector" d="M16.6871 1.6936H6.34019C3.48298 1.6936 1.16675 4.00983 1.16675 6.86705V17.2139C1.16675 20.0712 3.48298 22.3874 6.34019 22.3874H16.6871C19.5443 22.3874 21.8605 20.0712 21.8605 17.2139V6.86705C21.8605 4.00983 19.5443 1.6936 16.6871 1.6936Z" stroke="white" stroke-width="2.3" stroke-linecap="round" stroke-linejoin="round"/>
<path id="Vector_2" d="M15.6523 11.3886C15.78 12.2497 15.6329 13.1292 15.232 13.9019C14.831 14.6746 14.1966 15.3012 13.4191 15.6926C12.6415 16.084 11.7603 16.2202 10.9008 16.0819C10.0413 15.9436 9.24733 15.5378 8.63177 14.9222C8.01621 14.3067 7.61043 13.5127 7.47212 12.6532C7.33382 11.7937 7.47005 10.9125 7.86143 10.135C8.25282 9.35736 8.87942 8.72298 9.65213 8.32204C10.4248 7.9211 11.3043 7.77401 12.1654 7.9017C13.0438 8.03196 13.857 8.44126 14.4849 9.06915C15.1128 9.69705 15.5221 10.5102 15.6523 11.3886Z" stroke="white" stroke-width="2.3" stroke-linecap="round" stroke-linejoin="round"/>
<path id="Vector_3" d="M17.2045 6.34961H17.2146" stroke="white" stroke-width="2.3" stroke-linecap="round" stroke-linejoin="round"/>
</g>
</svg>
