<svg width="37" height="38" viewBox="0 0 37 38" fill="none" xmlns="http://www.w3.org/2000/svg">
<path d="M35.4636 20.8702V28.1491C35.4636 28.86 34.8873 29.4362 34.1765 29.4362H3.28706C2.57623 29.4362 2 28.86 2 28.1491V7.5561C2 6.84529 2.57623 6.26904 3.28706 6.26904H9.12707" stroke="black" stroke-width="2.29758" stroke-linecap="round" stroke-linejoin="round"/>
<path d="M16.1577 29.4363L13.5836 35.8715" stroke="black" stroke-width="2.29758" stroke-linecap="round" stroke-linejoin="round"/>
<path d="M21.3058 29.4363L23.8798 35.8715" stroke="black" stroke-width="2.29758" stroke-linecap="round" stroke-linejoin="round"/>
<path d="M11.0093 35.8713H26.4539" stroke="black" stroke-width="2.29758" stroke-linecap="round" stroke-linejoin="round"/>
<path d="M22.4915 2H23.9327C24.3151 2 24.6816 2.15185 24.9519 2.42214C25.2221 2.69243 25.3741 3.05903 25.3741 3.44127V7.39393C25.3741 8.92292 24.7666 10.3893 23.6855 11.4704C22.6043 12.5516 21.138 13.159 19.609 13.159C18.08 13.159 16.6136 12.5516 15.5324 11.4704C14.4513 10.3893 13.8439 8.92292 13.8439 7.39393V3.44127C13.8439 3.05903 13.9957 2.69243 14.266 2.42214C14.5363 2.15185 14.9029 2 15.2851 2H16.7264" stroke="black" stroke-width="2.29758" stroke-linecap="round" stroke-linejoin="round"/>
<path d="M32.5807 10.2766C34.1726 10.2766 35.4632 8.986 35.4632 7.39402C35.4632 5.80204 34.1726 4.51147 32.5807 4.51147C30.9886 4.51147 29.6981 5.80204 29.6981 7.39402C29.6981 8.986 30.9886 10.2766 32.5807 10.2766Z" stroke="black" stroke-width="2.29758" stroke-linecap="round" stroke-linejoin="round"/>
<path d="M19.6088 13.1591V13.8798C19.6088 15.5999 20.2921 17.2496 21.5083 18.4659C22.7246 19.6823 24.3743 20.3656 26.0944 20.3656C27.8145 20.3656 29.4642 19.6823 30.6805 18.4659C31.8968 17.2496 32.5801 15.5999 32.5801 13.8798V10.2766" stroke="black" stroke-width="2.29758" stroke-linecap="round" stroke-linejoin="round"/>
</svg>
