<svg xmlns="http://www.w3.org/2000/svg" width="27" height="28" viewBox="0 0 27 28" fill="none">
  <path d="M26.7529 11.7107C26.7008 11.4224 26.5492 11.1615 26.3243 10.9737C26.0996 10.7858 25.8159 10.6829 25.5231 10.6828H13.7501C13.5858 10.6828 13.4233 10.7151 13.2716 10.7779C13.1199 10.8407 12.9822 10.9327 12.8661 11.0488C12.7499 11.1649 12.6579 11.3027 12.5951 11.4544C12.5323 11.6061 12.4999 11.7687 12.5001 11.9328V16.7679C12.4999 16.9322 12.5323 17.0947 12.5951 17.2464C12.6579 17.3981 12.7499 17.5359 12.8661 17.6519C12.9822 17.7681 13.1199 17.8602 13.2716 17.9229C13.4233 17.9857 13.5858 18.0181 13.7501 18.0179H18.7031C18.3501 18.6137 17.8663 19.1213 17.2882 19.5023C16.2318 20.1722 15.0006 20.5137 13.7501 20.4838C12.4531 20.4689 11.1939 20.0458 10.1513 19.2743C9.10864 18.5029 8.33568 17.4224 7.94223 16.1866L7.94186 16.1844C7.50403 14.9012 7.50403 13.5091 7.94186 12.2257L7.94216 12.2237C8.33589 10.9881 9.10896 9.90793 10.1516 9.13673C11.1942 8.36553 12.4533 7.94248 13.7501 7.92767C14.4706 7.91113 15.1872 8.03709 15.8589 8.29832C16.5307 8.55956 17.1441 8.9509 17.6642 9.44988C17.9003 9.67558 18.2154 9.79991 18.5422 9.79626C18.8688 9.79261 19.1811 9.66128 19.4122 9.43037L22.9974 5.84514C23.1162 5.72653 23.2098 5.58518 23.2728 5.42954C23.3357 5.27392 23.3666 5.10721 23.3636 4.93936C23.3607 4.77152 23.3239 4.60599 23.2556 4.45268C23.1872 4.29937 23.0886 4.16142 22.9657 4.04706C20.4708 1.70794 17.1697 0.421514 13.7501 0.455744C11.1999 0.448205 8.69848 1.15327 6.52769 2.49142C4.3569 3.82958 2.60315 5.74761 1.4642 8.02923L1.46236 8.03145C0.496777 9.94613 -0.0041985 12.0613 2.65033e-05 14.2057C0.0030765 16.3493 0.503677 18.4628 1.46243 20.3801L1.46426 20.3823C2.60321 22.6638 4.35695 24.5819 6.52773 25.9201C8.6985 27.2582 11.1999 27.9633 13.7501 27.9557C17.1067 28.0407 20.3689 26.8391 22.8684 24.5969L22.8703 24.5953C24.2251 23.2919 25.2926 21.7194 26.0038 19.9792C26.7149 18.2391 27.0543 16.3693 27.0002 14.4902C27.0007 13.5582 26.9179 12.6279 26.7529 11.7107ZM13.7501 2.95574C16.0888 2.93298 18.3724 3.66643 20.2607 5.04681L18.4436 6.86325C17.0658 5.90957 15.4256 5.40788 13.7501 5.42767C12.2203 5.43554 10.7203 5.85091 9.40444 6.63103C8.08856 7.41116 7.00435 8.52783 6.26339 9.86616L4.92688 8.83023L4.19563 8.26313C5.20159 6.63545 6.60811 5.29288 8.28083 4.36369C9.95354 3.43452 11.8366 2.94977 13.7501 2.95574ZM3.09933 17.8349C2.30018 15.4814 2.30018 12.9301 3.09933 10.5766L5.32711 12.3039C5.04228 13.5554 5.04228 14.8549 5.32711 16.1064L3.09933 17.8349ZM13.7501 25.4557C11.8366 25.4617 9.95349 24.9769 8.28075 24.0477C6.60803 23.1184 5.20149 21.7758 4.19553 20.1482L4.66854 19.7812L6.26339 18.5441C7.00403 19.8828 8.08814 20.9998 9.40406 21.7802C10.72 22.5606 12.2202 22.9761 13.7501 22.9838C15.1821 23.0007 16.5979 22.6791 17.8822 22.0453L19.9968 23.6869C18.1371 24.8853 15.9619 25.5012 13.7501 25.4557ZM21.9074 22.0048L21.6787 21.8273L19.9569 20.4907C20.8597 19.5154 21.4664 18.3034 21.7066 16.9963C21.7401 16.8159 21.7334 16.6303 21.6872 16.4527C21.6409 16.2751 21.5561 16.1098 21.4388 15.9688C21.3214 15.8277 21.1744 15.7141 21.0083 15.6362C20.8421 15.5583 20.6608 15.5179 20.4773 15.5181H15.0001V13.1828H24.4361C24.4788 13.6149 24.5002 14.0519 24.5002 14.4902C24.5732 17.2262 23.6521 19.8959 21.9074 22.0048Z" fill="#212529"/>
</svg>