<svg width="168" height="77" viewBox="0 0 168 77" fill="none" xmlns="http://www.w3.org/2000/svg">
<mask id="path-1-inside-1_372_108" fill="white">
<path fill-rule="evenodd" clip-rule="evenodd" d="M8.69839 0.292582C7.69918 0.699896 1.38871 6.89754 0.755758 8.09298C0.160627 9.21697 0.165802 10.6455 0.768046 11.4417C1.41167 12.2925 1.37934 12.7897 0.616757 13.7588C-0.264141 14.879 -0.198194 16.4184 0.793908 17.8802C1.2468 18.5477 1.69905 19.5013 1.79862 19.9995C2.11154 21.5628 3.58821 22.6619 5.59989 22.829L7.36492 22.9751L7.30415 24.7066C7.25178 26.2094 7.36169 26.556 8.13946 27.335C8.96961 28.1668 9.25635 28.2405 12.0503 28.3426L15.0654 28.4532L15.6134 29.6955C16.4315 31.5494 18.0715 32.8377 19.9183 33.0765C20.7704 33.1871 22.0276 33.3575 22.7126 33.4557C23.4095 33.5556 24.3871 34.0179 24.9331 34.5057C25.8053 35.2851 25.9262 35.6252 26.0762 37.7177L26.2436 40.0581L28.5427 39.964L30.8421 39.87L30.9358 36.8099C31.0383 33.4764 31.1602 33.256 32.9058 33.2479C36.9689 33.2294 39.6498 29.9926 38.8603 26.0581C38.5623 24.5721 38.5846 24.501 39.6679 23.472C42.5902 20.6958 43.2325 18.8616 41.9934 16.8295C41.5771 16.1465 41.3482 15.2009 41.3482 14.1636C41.3482 12.7803 41.1901 12.3811 40.2168 11.3036C39.5945 10.6148 39.0853 9.75262 39.0853 9.38798C39.0853 9.02301 38.7404 8.31312 38.3189 7.81076C37.8977 7.30809 37.4522 6.43592 37.3294 5.87279C36.8771 3.79969 35.3723 2.85608 32.5182 2.85608C30.994 2.85608 30.7613 2.75457 29.9505 1.73887C29.0014 0.548931 27.4471 0.021362 26.1266 0.440637C25.7248 0.568004 24.6839 1.33835 23.814 2.152C22.5393 3.34453 22.1744 3.54075 21.9355 3.16318C21.7722 2.90521 21.6368 2.53798 21.6339 2.34661C21.6313 2.15556 21.2537 1.64642 20.7947 1.21518C20.1517 0.611321 19.606 0.431586 18.4132 0.431586C17.0354 0.431586 16.6982 0.58643 15.3321 1.84555L13.7982 3.25951L13.2955 2.22183C12.4502 0.476196 10.3797 -0.392741 8.69839 0.292582ZM5.46251 4.65182C1.24001 8.81256 0.960387 9.26093 1.66511 10.7386C2.00065 11.4417 2.4723 11.8778 3.00827 11.9802C4.02494 12.1748 4.17268 12.0384 4.17268 10.9047C4.17268 9.48302 4.72514 8.39135 6.25095 6.79927C7.44994 5.54791 7.74929 5.38013 8.1663 5.72603C8.59624 6.08323 8.47986 6.31114 7.26859 7.48621C5.78997 8.92054 5.14247 9.92072 5.14247 10.7696C5.14247 11.6689 6.63854 12.8773 7.75155 12.8773C8.63083 12.8773 9.30548 12.3352 12.5766 8.99909C15.6735 5.84079 16.4487 5.2046 16.7525 5.57086C17.0516 5.9313 16.6038 6.55682 14.4974 8.7214C11.0317 12.2831 10.6794 13.2804 12.3406 14.8279C13.2697 15.6933 14.5973 15.626 15.7514 14.6553C16.2796 14.2108 16.8725 13.8471 17.069 13.8471C17.754 13.8471 17.4194 14.7652 16.4319 15.5963C14.5136 17.2107 11.0427 16.473 10.5064 14.3372C10.2821 13.443 9.79556 13.3325 8.56133 13.8946C7.91383 14.1898 7.46319 14.1568 6.35342 13.733C4.62492 13.0729 3.76019 13.0629 2.54988 13.6887C1.36447 14.3016 0.8647 15.2119 1.13075 16.2726C1.4524 17.5543 2.45582 18.0496 4.72966 18.0496C6.54318 18.0496 6.7588 18.1181 6.7588 18.6961C6.7588 19.2708 6.54318 19.3426 4.81921 19.3426C3.75243 19.3426 2.87961 19.4684 2.87961 19.6222C2.87961 19.7761 3.18122 20.2853 3.54974 20.7537C4.17235 21.5453 4.39993 21.6055 6.76979 21.6055H9.32003L9.66366 20.3299C10.264 18.1003 11.1038 17.7263 15.5115 17.7263C17.6105 17.7263 19.3978 17.6135 19.4832 17.4754C19.5685 17.3374 19.479 16.6282 19.2847 15.8995C18.8337 14.2105 19.3898 12.7276 20.795 11.8703C21.6238 11.3651 22.4456 11.2632 25.7022 11.2623C29.5193 11.261 29.6453 11.238 30.9293 10.3077C32.0123 9.52343 32.3097 9.43259 32.61 9.79432C32.8967 10.1399 32.7173 10.4308 31.774 11.1517C30.6184 12.0342 30.4018 12.0753 26.072 12.2308C21.8281 12.383 21.5356 12.436 20.9534 13.1556C20.194 14.0941 20.1514 15.8791 20.8709 16.5987C21.7486 17.4764 22.8167 17.7263 25.6908 17.7263C27.8991 17.7263 28.4176 17.8184 28.4176 18.2112C28.4176 18.6292 27.3026 18.6961 20.3214 18.6961H12.2249L11.4316 19.4897C10.9952 19.9261 10.638 20.6415 10.638 21.0795C10.638 23.4908 11.6207 23.8683 17.8953 23.8683C22.1482 23.8683 22.9221 23.943 22.9221 24.3532C22.9221 24.7024 22.5649 24.8381 21.6474 24.8381C20.6964 24.8381 20.2448 25.0208 19.8695 25.5567C19.1618 26.5669 19.2397 27.2245 20.2031 28.3692L21.04 29.3638H27.1384H33.2371L34.0767 28.5243C35.124 27.4769 35.0187 27.143 33.4715 26.6112C32.3449 26.224 32.1177 26.255 30.6985 26.9914C29.2603 27.7375 29.0767 27.7611 28.0578 27.3302C26.2401 26.5611 25.6637 25.6624 25.7118 23.6715L25.7539 21.9287H20.1355C15.357 21.9287 14.5172 21.8563 14.5172 21.4438C14.5172 21.0262 15.6082 20.9589 22.3968 20.9589C26.7305 20.9589 30.7409 20.8662 31.3085 20.7524C33.21 20.3722 33.991 17.9852 32.6527 16.6443C32.0352 16.0253 31.5035 15.9305 27.8441 15.7867C24.4747 15.6542 23.7302 15.5375 23.7302 15.1402C23.7302 14.7358 24.411 14.6517 27.8305 14.6336L31.9311 14.6119L34.2212 12.4516C35.7787 10.9823 36.7679 10.2912 37.3135 10.2912C38.3228 10.2912 38.3509 9.62461 37.3882 8.53197C36.7685 7.82887 36.3505 7.69471 34.5638 7.62456C32.8644 7.55797 32.4464 7.43513 32.3582 6.97706C32.2641 6.48926 32.5176 6.412 34.2128 6.412C36.3822 6.412 36.7252 5.99143 35.5294 4.79567C35.0296 4.2959 34.452 4.14914 32.9824 4.14914C31.1618 4.14914 31.0648 4.19116 30.6669 5.15191C30.2001 6.27849 28.3639 8.35159 27.8328 8.35159C26.9622 8.35159 27.1808 7.57252 28.3914 6.36221C29.3864 5.36688 29.7106 4.78823 29.7106 4.00593C29.7106 2.63658 28.5744 1.56301 27.1252 1.56301C26.1496 1.56301 25.4775 2.11806 20.6689 6.89689C17.7165 9.83053 15.1249 12.2308 14.9093 12.2308C14.0235 12.2308 14.6788 11.2952 17.7498 8.17444C20.2296 5.65458 20.9825 4.68673 20.9825 4.01983C20.9825 2.79336 19.6564 1.56301 18.3349 1.56301C17.413 1.56301 16.7787 2.05761 13.4769 5.35072C10.4799 8.33995 9.59578 9.05501 9.28318 8.74242C8.97058 8.42982 9.2557 7.97337 10.6354 6.57621C12.1072 5.08596 12.3836 4.61981 12.3836 3.62771C12.3836 2.20922 11.3783 1.23975 9.9074 1.23975C9.09375 1.23975 8.32987 1.82615 5.46251 4.65182ZM37.1457 11.4895C36.4132 11.7478 33.2666 14.8967 33.2666 15.3716C33.2666 15.5998 33.4065 15.7867 33.5772 15.7867C34.1785 15.7867 34.624 18.3298 34.2312 19.5198C33.6681 21.2263 32.4206 21.9287 29.9534 21.9287C28.3468 21.9287 27.7491 22.0639 27.3363 22.52C26.6089 23.3236 26.6639 24.5763 27.4714 25.6026C28.6946 27.1579 29.505 26.8094 33.1751 23.152C35.7926 20.5435 36.5723 19.9329 36.8855 20.2461C37.1984 20.5591 36.86 21.0682 35.2744 22.6684C34.1701 23.7823 33.2666 24.8559 33.2666 25.0541C33.2666 25.5732 34.709 25.8596 35.5879 25.5147C36.0001 25.3531 37.4651 24.0384 38.8429 22.5934C41.0996 20.2267 41.3482 19.8398 41.3482 18.6919C41.3482 17.1379 40.2766 16.2296 38.8422 16.5674C37.2463 16.9437 36.9841 16.9246 36.9841 16.4332C36.9841 16.1381 37.6164 15.7395 38.6004 15.4146C39.9944 14.9543 40.23 14.7526 40.3128 13.9496C40.4595 12.5266 38.5067 11.0095 37.1457 11.4895ZM8.72199 23.7503C7.83398 24.8792 7.87697 25.5448 8.90399 26.5721C9.68112 27.3489 9.98208 27.4242 12.3086 27.4242C14.9807 27.4242 15.0771 27.3712 15.2406 25.8079C15.3211 25.0398 15.2338 24.9949 13.4756 24.9031C11.9281 24.8223 11.4701 24.6506 10.6719 23.8525C10.1473 23.3278 9.64459 22.8985 9.55504 22.8985C9.46517 22.8985 9.09019 23.2819 8.72199 23.7503ZM16.7574 25.3502C16.2279 25.9883 16.2078 28.6365 16.7254 29.593C17.5672 31.1489 19.2666 32.0473 21.7509 32.2506C25.3792 32.5474 26.8316 33.8601 27.1245 37.1077L27.2861 38.9002H28.4176H29.549L29.6421 35.8873C29.722 33.3119 29.6392 32.719 29.0728 31.8026C28.2605 30.4878 27.7565 30.3437 23.9565 30.3382C19.543 30.3317 18.3964 29.4941 18.3964 26.2776C18.3964 25.0848 18.2923 24.8381 17.7893 24.8381C17.4557 24.8381 16.9911 25.0686 16.7574 25.3502ZM36.356 26.5265C36.0793 26.9216 35.8527 27.4921 35.8527 27.7947C35.8527 28.097 35.405 28.792 34.858 29.3389C34.0498 30.1474 33.5805 30.3407 32.3527 30.3718C31.5219 30.3931 30.6604 30.3867 30.438 30.3579C29.9082 30.289 29.9221 31.027 30.4648 31.7693C30.824 32.2603 31.228 32.3346 32.8845 32.215C35.3089 32.0395 37.0546 30.8276 37.7616 28.8285C38.5723 26.5362 37.5369 24.8404 36.356 26.5265Z"/>
</mask>
<path fill-rule="evenodd" clip-rule="evenodd" d="M8.69839 0.292582C7.69918 0.699896 1.38871 6.89754 0.755758 8.09298C0.160627 9.21697 0.165802 10.6455 0.768046 11.4417C1.41167 12.2925 1.37934 12.7897 0.616757 13.7588C-0.264141 14.879 -0.198194 16.4184 0.793908 17.8802C1.2468 18.5477 1.69905 19.5013 1.79862 19.9995C2.11154 21.5628 3.58821 22.6619 5.59989 22.829L7.36492 22.9751L7.30415 24.7066C7.25178 26.2094 7.36169 26.556 8.13946 27.335C8.96961 28.1668 9.25635 28.2405 12.0503 28.3426L15.0654 28.4532L15.6134 29.6955C16.4315 31.5494 18.0715 32.8377 19.9183 33.0765C20.7704 33.1871 22.0276 33.3575 22.7126 33.4557C23.4095 33.5556 24.3871 34.0179 24.9331 34.5057C25.8053 35.2851 25.9262 35.6252 26.0762 37.7177L26.2436 40.0581L28.5427 39.964L30.8421 39.87L30.9358 36.8099C31.0383 33.4764 31.1602 33.256 32.9058 33.2479C36.9689 33.2294 39.6498 29.9926 38.8603 26.0581C38.5623 24.5721 38.5846 24.501 39.6679 23.472C42.5902 20.6958 43.2325 18.8616 41.9934 16.8295C41.5771 16.1465 41.3482 15.2009 41.3482 14.1636C41.3482 12.7803 41.1901 12.3811 40.2168 11.3036C39.5945 10.6148 39.0853 9.75262 39.0853 9.38798C39.0853 9.02301 38.7404 8.31312 38.3189 7.81076C37.8977 7.30809 37.4522 6.43592 37.3294 5.87279C36.8771 3.79969 35.3723 2.85608 32.5182 2.85608C30.994 2.85608 30.7613 2.75457 29.9505 1.73887C29.0014 0.548931 27.4471 0.021362 26.1266 0.440637C25.7248 0.568004 24.6839 1.33835 23.814 2.152C22.5393 3.34453 22.1744 3.54075 21.9355 3.16318C21.7722 2.90521 21.6368 2.53798 21.6339 2.34661C21.6313 2.15556 21.2537 1.64642 20.7947 1.21518C20.1517 0.611321 19.606 0.431586 18.4132 0.431586C17.0354 0.431586 16.6982 0.58643 15.3321 1.84555L13.7982 3.25951L13.2955 2.22183C12.4502 0.476196 10.3797 -0.392741 8.69839 0.292582ZM5.46251 4.65182C1.24001 8.81256 0.960387 9.26093 1.66511 10.7386C2.00065 11.4417 2.4723 11.8778 3.00827 11.9802C4.02494 12.1748 4.17268 12.0384 4.17268 10.9047C4.17268 9.48302 4.72514 8.39135 6.25095 6.79927C7.44994 5.54791 7.74929 5.38013 8.1663 5.72603C8.59624 6.08323 8.47986 6.31114 7.26859 7.48621C5.78997 8.92054 5.14247 9.92072 5.14247 10.7696C5.14247 11.6689 6.63854 12.8773 7.75155 12.8773C8.63083 12.8773 9.30548 12.3352 12.5766 8.99909C15.6735 5.84079 16.4487 5.2046 16.7525 5.57086C17.0516 5.9313 16.6038 6.55682 14.4974 8.7214C11.0317 12.2831 10.6794 13.2804 12.3406 14.8279C13.2697 15.6933 14.5973 15.626 15.7514 14.6553C16.2796 14.2108 16.8725 13.8471 17.069 13.8471C17.754 13.8471 17.4194 14.7652 16.4319 15.5963C14.5136 17.2107 11.0427 16.473 10.5064 14.3372C10.2821 13.443 9.79556 13.3325 8.56133 13.8946C7.91383 14.1898 7.46319 14.1568 6.35342 13.733C4.62492 13.0729 3.76019 13.0629 2.54988 13.6887C1.36447 14.3016 0.8647 15.2119 1.13075 16.2726C1.4524 17.5543 2.45582 18.0496 4.72966 18.0496C6.54318 18.0496 6.7588 18.1181 6.7588 18.6961C6.7588 19.2708 6.54318 19.3426 4.81921 19.3426C3.75243 19.3426 2.87961 19.4684 2.87961 19.6222C2.87961 19.7761 3.18122 20.2853 3.54974 20.7537C4.17235 21.5453 4.39993 21.6055 6.76979 21.6055H9.32003L9.66366 20.3299C10.264 18.1003 11.1038 17.7263 15.5115 17.7263C17.6105 17.7263 19.3978 17.6135 19.4832 17.4754C19.5685 17.3374 19.479 16.6282 19.2847 15.8995C18.8337 14.2105 19.3898 12.7276 20.795 11.8703C21.6238 11.3651 22.4456 11.2632 25.7022 11.2623C29.5193 11.261 29.6453 11.238 30.9293 10.3077C32.0123 9.52343 32.3097 9.43259 32.61 9.79432C32.8967 10.1399 32.7173 10.4308 31.774 11.1517C30.6184 12.0342 30.4018 12.0753 26.072 12.2308C21.8281 12.383 21.5356 12.436 20.9534 13.1556C20.194 14.0941 20.1514 15.8791 20.8709 16.5987C21.7486 17.4764 22.8167 17.7263 25.6908 17.7263C27.8991 17.7263 28.4176 17.8184 28.4176 18.2112C28.4176 18.6292 27.3026 18.6961 20.3214 18.6961H12.2249L11.4316 19.4897C10.9952 19.9261 10.638 20.6415 10.638 21.0795C10.638 23.4908 11.6207 23.8683 17.8953 23.8683C22.1482 23.8683 22.9221 23.943 22.9221 24.3532C22.9221 24.7024 22.5649 24.8381 21.6474 24.8381C20.6964 24.8381 20.2448 25.0208 19.8695 25.5567C19.1618 26.5669 19.2397 27.2245 20.2031 28.3692L21.04 29.3638H27.1384H33.2371L34.0767 28.5243C35.124 27.4769 35.0187 27.143 33.4715 26.6112C32.3449 26.224 32.1177 26.255 30.6985 26.9914C29.2603 27.7375 29.0767 27.7611 28.0578 27.3302C26.2401 26.5611 25.6637 25.6624 25.7118 23.6715L25.7539 21.9287H20.1355C15.357 21.9287 14.5172 21.8563 14.5172 21.4438C14.5172 21.0262 15.6082 20.9589 22.3968 20.9589C26.7305 20.9589 30.7409 20.8662 31.3085 20.7524C33.21 20.3722 33.991 17.9852 32.6527 16.6443C32.0352 16.0253 31.5035 15.9305 27.8441 15.7867C24.4747 15.6542 23.7302 15.5375 23.7302 15.1402C23.7302 14.7358 24.411 14.6517 27.8305 14.6336L31.9311 14.6119L34.2212 12.4516C35.7787 10.9823 36.7679 10.2912 37.3135 10.2912C38.3228 10.2912 38.3509 9.62461 37.3882 8.53197C36.7685 7.82887 36.3505 7.69471 34.5638 7.62456C32.8644 7.55797 32.4464 7.43513 32.3582 6.97706C32.2641 6.48926 32.5176 6.412 34.2128 6.412C36.3822 6.412 36.7252 5.99143 35.5294 4.79567C35.0296 4.2959 34.452 4.14914 32.9824 4.14914C31.1618 4.14914 31.0648 4.19116 30.6669 5.15191C30.2001 6.27849 28.3639 8.35159 27.8328 8.35159C26.9622 8.35159 27.1808 7.57252 28.3914 6.36221C29.3864 5.36688 29.7106 4.78823 29.7106 4.00593C29.7106 2.63658 28.5744 1.56301 27.1252 1.56301C26.1496 1.56301 25.4775 2.11806 20.6689 6.89689C17.7165 9.83053 15.1249 12.2308 14.9093 12.2308C14.0235 12.2308 14.6788 11.2952 17.7498 8.17444C20.2296 5.65458 20.9825 4.68673 20.9825 4.01983C20.9825 2.79336 19.6564 1.56301 18.3349 1.56301C17.413 1.56301 16.7787 2.05761 13.4769 5.35072C10.4799 8.33995 9.59578 9.05501 9.28318 8.74242C8.97058 8.42982 9.2557 7.97337 10.6354 6.57621C12.1072 5.08596 12.3836 4.61981 12.3836 3.62771C12.3836 2.20922 11.3783 1.23975 9.9074 1.23975C9.09375 1.23975 8.32987 1.82615 5.46251 4.65182ZM37.1457 11.4895C36.4132 11.7478 33.2666 14.8967 33.2666 15.3716C33.2666 15.5998 33.4065 15.7867 33.5772 15.7867C34.1785 15.7867 34.624 18.3298 34.2312 19.5198C33.6681 21.2263 32.4206 21.9287 29.9534 21.9287C28.3468 21.9287 27.7491 22.0639 27.3363 22.52C26.6089 23.3236 26.6639 24.5763 27.4714 25.6026C28.6946 27.1579 29.505 26.8094 33.1751 23.152C35.7926 20.5435 36.5723 19.9329 36.8855 20.2461C37.1984 20.5591 36.86 21.0682 35.2744 22.6684C34.1701 23.7823 33.2666 24.8559 33.2666 25.0541C33.2666 25.5732 34.709 25.8596 35.5879 25.5147C36.0001 25.3531 37.4651 24.0384 38.8429 22.5934C41.0996 20.2267 41.3482 19.8398 41.3482 18.6919C41.3482 17.1379 40.2766 16.2296 38.8422 16.5674C37.2463 16.9437 36.9841 16.9246 36.9841 16.4332C36.9841 16.1381 37.6164 15.7395 38.6004 15.4146C39.9944 14.9543 40.23 14.7526 40.3128 13.9496C40.4595 12.5266 38.5067 11.0095 37.1457 11.4895ZM8.72199 23.7503C7.83398 24.8792 7.87697 25.5448 8.90399 26.5721C9.68112 27.3489 9.98208 27.4242 12.3086 27.4242C14.9807 27.4242 15.0771 27.3712 15.2406 25.8079C15.3211 25.0398 15.2338 24.9949 13.4756 24.9031C11.9281 24.8223 11.4701 24.6506 10.6719 23.8525C10.1473 23.3278 9.64459 22.8985 9.55504 22.8985C9.46517 22.8985 9.09019 23.2819 8.72199 23.7503ZM16.7574 25.3502C16.2279 25.9883 16.2078 28.6365 16.7254 29.593C17.5672 31.1489 19.2666 32.0473 21.7509 32.2506C25.3792 32.5474 26.8316 33.8601 27.1245 37.1077L27.2861 38.9002H28.4176H29.549L29.6421 35.8873C29.722 33.3119 29.6392 32.719 29.0728 31.8026C28.2605 30.4878 27.7565 30.3437 23.9565 30.3382C19.543 30.3317 18.3964 29.4941 18.3964 26.2776C18.3964 25.0848 18.2923 24.8381 17.7893 24.8381C17.4557 24.8381 16.9911 25.0686 16.7574 25.3502ZM36.356 26.5265C36.0793 26.9216 35.8527 27.4921 35.8527 27.7947C35.8527 28.097 35.405 28.792 34.858 29.3389C34.0498 30.1474 33.5805 30.3407 32.3527 30.3718C31.5219 30.3931 30.6604 30.3867 30.438 30.3579C29.9082 30.289 29.9221 31.027 30.4648 31.7693C30.824 32.2603 31.228 32.3346 32.8845 32.215C35.3089 32.0395 37.0546 30.8276 37.7616 28.8285C38.5723 26.5362 37.5369 24.8404 36.356 26.5265Z" stroke="#F17732" stroke-width="8" mask="url(#path-1-inside-1_372_108)"/>
<path d="M1.476 71.0581V58.3681H5.958C7.35 58.3681 8.532 58.6141 9.504 59.1061C10.476 59.5861 11.214 60.3001 11.718 61.2481C12.234 62.1841 12.492 63.3361 12.492 64.7041C12.492 66.0721 12.234 67.2301 11.718 68.1781C11.214 69.1141 10.476 69.8281 9.504 70.3201C8.532 70.8121 7.35 71.0581 5.958 71.0581H1.476ZM3.348 69.4921H5.85C7.422 69.4921 8.598 69.0961 9.378 68.3041C10.158 67.5001 10.548 66.3001 10.548 64.7041C10.548 63.1081 10.152 61.9141 9.36 61.1221C8.58 60.3301 7.41 59.9341 5.85 59.9341H3.348V69.4921ZM14.7956 71.0581V62.2741H16.5596V64.3801H16.3796C16.5716 63.6601 16.9136 63.1141 17.4056 62.7421C17.9096 62.3701 18.5756 62.1541 19.4036 62.0941L19.9976 62.0581L20.1236 63.6061L19.0256 63.7141C18.2456 63.7861 17.6516 64.0321 17.2436 64.4521C16.8356 64.8721 16.6316 65.4481 16.6316 66.1801V71.0581H14.7956ZM20.9077 71.0581V68.9161H23.0497V71.0581H20.9077ZM30.3577 71.0581V58.3681H31.9237L36.9097 67.6561H36.3517L41.3017 58.3681H42.8317V71.0581H41.1577V61.0141H41.5537L37.1797 69.1141H36.0457L31.6177 60.9961H32.0497V71.0581H30.3577ZM48.4356 71.2201C47.8236 71.2201 47.2716 71.1001 46.7796 70.8601C46.2996 70.6201 45.9216 70.2961 45.6456 69.8881C45.3696 69.4801 45.2316 69.0181 45.2316 68.5021C45.2316 67.8541 45.3936 67.3441 45.7176 66.9721C46.0536 66.5881 46.5996 66.3181 47.3556 66.1621C48.1236 65.9941 49.1556 65.9101 50.4516 65.9101H51.2976V67.0261H50.4696C49.8216 67.0261 49.2756 67.0501 48.8316 67.0981C48.3876 67.1461 48.0336 67.2241 47.7696 67.3321C47.5056 67.4281 47.3136 67.5661 47.1936 67.7461C47.0856 67.9261 47.0316 68.1421 47.0316 68.3941C47.0316 68.8501 47.1876 69.2221 47.4996 69.5101C47.8116 69.7861 48.2436 69.9241 48.7956 69.9241C49.2396 69.9241 49.6296 69.8221 49.9656 69.6181C50.3016 69.4021 50.5656 69.1141 50.7576 68.7541C50.9616 68.3941 51.0636 67.9801 51.0636 67.5121V65.4421C51.0636 64.7581 50.9196 64.2661 50.6316 63.9661C50.3436 63.6661 49.8696 63.5161 49.2096 63.5161C48.7056 63.5161 48.2016 63.5941 47.6976 63.7501C47.1936 63.8941 46.6776 64.1281 46.1496 64.4521L45.5916 63.1741C45.9036 62.9581 46.2636 62.7721 46.6716 62.6161C47.0796 62.4601 47.5056 62.3401 47.9496 62.2561C48.4056 62.1601 48.8436 62.1121 49.2636 62.1121C50.0676 62.1121 50.7276 62.2381 51.2436 62.4901C51.7716 62.7421 52.1616 63.1261 52.4136 63.6421C52.6656 64.1581 52.7916 64.8241 52.7916 65.6401V71.0581H51.0816V69.0961H51.2436C51.1476 69.5401 50.9676 69.9241 50.7036 70.2481C50.4516 70.5601 50.1336 70.8001 49.7496 70.9681C49.3656 71.1361 48.9276 71.2201 48.4356 71.2201ZM59.0396 71.2201C57.9476 71.2201 57.1256 70.9381 56.5736 70.3741C56.0336 69.8101 55.7636 68.9941 55.7636 67.9261V63.6781H54.0536V62.2741H55.7636V59.6281H57.5816V62.2741H60.2996V63.6781H57.5816V67.7821C57.5816 68.4181 57.7136 68.8981 57.9776 69.2221C58.2536 69.5461 58.6976 69.7081 59.3096 69.7081C59.4896 69.7081 59.6696 69.6841 59.8496 69.6361C60.0416 69.5881 60.2276 69.5401 60.4076 69.4921L60.6956 70.8601C60.5156 70.9681 60.2636 71.0521 59.9396 71.1121C59.6276 71.1841 59.3276 71.2201 59.0396 71.2201ZM61.8698 71.0581V58.3681H63.6878V64.1461H63.4358C63.6998 63.4741 64.1138 62.9701 64.6778 62.6341C65.2418 62.2861 65.8898 62.1121 66.6218 62.1121C67.3178 62.1121 67.8938 62.2441 68.3498 62.5081C68.8178 62.7601 69.1658 63.1501 69.3938 63.6781C69.6218 64.1941 69.7358 64.8481 69.7358 65.6401V71.0581H67.9178V65.7481C67.9178 65.2441 67.8518 64.8361 67.7198 64.5241C67.5878 64.2001 67.3898 63.9601 67.1258 63.8041C66.8618 63.6481 66.5198 63.5701 66.0998 63.5701C65.6198 63.5701 65.1938 63.6721 64.8218 63.8761C64.4618 64.0801 64.1798 64.3741 63.9758 64.7581C63.7838 65.1421 63.6878 65.5861 63.6878 66.0901V71.0581H61.8698ZM76.3629 71.2201C75.4029 71.2201 74.5749 71.0401 73.8789 70.6801C73.1949 70.3081 72.6609 69.7861 72.2769 69.1141C71.9049 68.4301 71.7189 67.6201 71.7189 66.6841C71.7189 65.7721 71.9049 64.9741 72.2769 64.2901C72.6489 63.6061 73.1589 63.0721 73.8069 62.6881C74.4549 62.3041 75.1929 62.1121 76.0209 62.1121C76.8369 62.1121 77.5329 62.2921 78.1089 62.6521C78.6969 63.0001 79.1469 63.4981 79.4589 64.1461C79.7709 64.7941 79.9269 65.5681 79.9269 66.4681V67.0801H73.1589V65.9641H78.7029L78.3969 66.2161C78.3969 65.3161 78.1989 64.6201 77.8029 64.1281C77.4069 63.6361 76.8369 63.3901 76.0929 63.3901C75.5289 63.3901 75.0489 63.5221 74.6529 63.7861C74.2689 64.0501 73.9749 64.4161 73.7709 64.8841C73.5669 65.3521 73.4649 65.8981 73.4649 66.5221V66.6301C73.4649 67.3261 73.5729 67.9141 73.7889 68.3941C74.0169 68.8621 74.3469 69.2161 74.7789 69.4561C75.2109 69.6961 75.7449 69.8161 76.3809 69.8161C76.8849 69.8161 77.3769 69.7381 77.8569 69.5821C78.3489 69.4141 78.8109 69.1561 79.2429 68.8081L79.7829 70.0681C79.3869 70.4281 78.8769 70.7101 78.2529 70.9141C77.6289 71.1181 76.9989 71.2201 76.3629 71.2201ZM85.0409 71.2201C84.3329 71.2201 83.7389 71.0881 83.2589 70.8241C82.7909 70.5601 82.4369 70.1701 82.1969 69.6541C81.9689 69.1261 81.8549 68.4661 81.8549 67.6741V62.2741H83.6729V67.6921C83.6729 68.1601 83.7329 68.5501 83.8529 68.8621C83.9849 69.1741 84.1829 69.4021 84.4469 69.5461C84.7229 69.6901 85.0649 69.7621 85.4729 69.7621C85.9289 69.7621 86.3309 69.6601 86.6789 69.4561C87.0269 69.2521 87.2969 68.9581 87.4889 68.5741C87.6809 68.1901 87.7769 67.7461 87.7769 67.2421V62.2741H89.5949V71.0581H87.8309V69.1321H88.0649C87.8249 69.8041 87.4409 70.3201 86.9129 70.6801C86.3849 71.0401 85.7609 71.2201 85.0409 71.2201ZM95.2349 71.2201C94.7669 71.2201 94.3109 71.1781 93.8669 71.0941C93.4229 71.0101 93.0149 70.8901 92.6429 70.7341C92.2709 70.5781 91.9409 70.3861 91.6529 70.1581L92.1749 68.9341C92.4749 69.1381 92.7929 69.3181 93.1289 69.4741C93.4649 69.6181 93.8129 69.7261 94.1729 69.7981C94.5449 69.8701 94.9049 69.9061 95.2529 69.9061C95.8889 69.9061 96.3689 69.7921 96.6929 69.5641C97.0169 69.3361 97.1789 69.0301 97.1789 68.6461C97.1789 68.3341 97.0709 68.0941 96.8549 67.9261C96.6389 67.7461 96.3149 67.6081 95.8829 67.5121L94.1729 67.1701C93.4289 67.0141 92.8649 66.7381 92.4809 66.3421C92.0969 65.9461 91.9049 65.4421 91.9049 64.8301C91.9049 64.2781 92.0549 63.7981 92.3549 63.3901C92.6549 62.9821 93.0749 62.6701 93.6149 62.4541C94.1549 62.2261 94.7789 62.1121 95.4869 62.1121C95.8949 62.1121 96.2909 62.1541 96.6749 62.2381C97.0589 62.3221 97.4189 62.4421 97.7549 62.5981C98.1029 62.7541 98.3969 62.9521 98.6369 63.1921L98.1149 64.4161C97.8869 64.2121 97.6229 64.0381 97.3229 63.8941C97.0349 63.7501 96.7349 63.6421 96.4229 63.5701C96.1109 63.4861 95.7989 63.4441 95.4869 63.4441C94.8509 63.4441 94.3709 63.5641 94.0469 63.8041C93.7349 64.0321 93.5789 64.3441 93.5789 64.7401C93.5789 65.0401 93.6749 65.2861 93.8669 65.4781C94.0589 65.6701 94.3589 65.8081 94.7669 65.8921L96.4769 66.2341C97.2569 66.3901 97.8449 66.6541 98.2409 67.0261C98.6489 67.3981 98.8529 67.9021 98.8529 68.5381C98.8529 69.0901 98.7029 69.5701 98.4029 69.9781C98.1029 70.3861 97.6769 70.6981 97.1249 70.9141C96.5849 71.1181 95.9549 71.2201 95.2349 71.2201ZM109.258 71.0581L104.812 58.3681H106.72L110.446 69.3301H109.78L113.614 58.3681H115.036L118.798 69.3301H118.204L121.966 58.3681H123.784L119.302 71.0581H117.736L114.1 60.6361H114.496L110.824 71.0581H109.258ZM127.291 71.2201C126.679 71.2201 126.127 71.1001 125.635 70.8601C125.155 70.6201 124.777 70.2961 124.501 69.8881C124.225 69.4801 124.087 69.0181 124.087 68.5021C124.087 67.8541 124.249 67.3441 124.573 66.9721C124.909 66.5881 125.455 66.3181 126.211 66.1621C126.979 65.9941 128.011 65.9101 129.307 65.9101H130.153V67.0261H129.325C128.677 67.0261 128.131 67.0501 127.687 67.0981C127.243 67.1461 126.889 67.2241 126.625 67.3321C126.361 67.4281 126.169 67.5661 126.049 67.7461C125.941 67.9261 125.887 68.1421 125.887 68.3941C125.887 68.8501 126.043 69.2221 126.355 69.5101C126.667 69.7861 127.099 69.9241 127.651 69.9241C128.095 69.9241 128.485 69.8221 128.821 69.6181C129.157 69.4021 129.421 69.1141 129.613 68.7541C129.817 68.3941 129.919 67.9801 129.919 67.5121V65.4421C129.919 64.7581 129.775 64.2661 129.487 63.9661C129.199 63.6661 128.725 63.5161 128.065 63.5161C127.561 63.5161 127.057 63.5941 126.553 63.7501C126.049 63.8941 125.533 64.1281 125.005 64.4521L124.447 63.1741C124.759 62.9581 125.119 62.7721 125.527 62.6161C125.935 62.4601 126.361 62.3401 126.805 62.2561C127.261 62.1601 127.699 62.1121 128.119 62.1121C128.923 62.1121 129.583 62.2381 130.099 62.4901C130.627 62.7421 131.017 63.1261 131.269 63.6421C131.521 64.1581 131.647 64.8241 131.647 65.6401V71.0581H129.937V69.0961H130.099C130.003 69.5401 129.823 69.9241 129.559 70.2481C129.307 70.5601 128.989 70.8001 128.605 70.9681C128.221 71.1361 127.783 71.2201 127.291 71.2201ZM137.229 71.2201C136.761 71.2201 136.305 71.1781 135.861 71.0941C135.417 71.0101 135.009 70.8901 134.637 70.7341C134.265 70.5781 133.935 70.3861 133.647 70.1581L134.169 68.9341C134.469 69.1381 134.787 69.3181 135.123 69.4741C135.459 69.6181 135.807 69.7261 136.167 69.7981C136.539 69.8701 136.899 69.9061 137.247 69.9061C137.883 69.9061 138.363 69.7921 138.687 69.5641C139.011 69.3361 139.173 69.0301 139.173 68.6461C139.173 68.3341 139.065 68.0941 138.849 67.9261C138.633 67.7461 138.309 67.6081 137.877 67.5121L136.167 67.1701C135.423 67.0141 134.859 66.7381 134.475 66.3421C134.091 65.9461 133.899 65.4421 133.899 64.8301C133.899 64.2781 134.049 63.7981 134.349 63.3901C134.649 62.9821 135.069 62.6701 135.609 62.4541C136.149 62.2261 136.773 62.1121 137.481 62.1121C137.889 62.1121 138.285 62.1541 138.669 62.2381C139.053 62.3221 139.413 62.4421 139.749 62.5981C140.097 62.7541 140.391 62.9521 140.631 63.1921L140.109 64.4161C139.881 64.2121 139.617 64.0381 139.317 63.8941C139.029 63.7501 138.729 63.6421 138.417 63.5701C138.105 63.4861 137.793 63.4441 137.481 63.4441C136.845 63.4441 136.365 63.5641 136.041 63.8041C135.729 64.0321 135.573 64.3441 135.573 64.7401C135.573 65.0401 135.669 65.2861 135.861 65.4781C136.053 65.6701 136.353 65.8081 136.761 65.8921L138.471 66.2341C139.251 66.3901 139.839 66.6541 140.235 67.0261C140.643 67.3981 140.847 67.9021 140.847 68.5381C140.847 69.0901 140.697 69.5701 140.397 69.9781C140.097 70.3861 139.671 70.6981 139.119 70.9141C138.579 71.1181 137.949 71.2201 137.229 71.2201ZM146.992 71.2201C146.032 71.2201 145.204 71.0401 144.508 70.6801C143.824 70.3081 143.29 69.7861 142.906 69.1141C142.534 68.4301 142.348 67.6201 142.348 66.6841C142.348 65.7721 142.534 64.9741 142.906 64.2901C143.278 63.6061 143.788 63.0721 144.436 62.6881C145.084 62.3041 145.822 62.1121 146.65 62.1121C147.466 62.1121 148.162 62.2921 148.738 62.6521C149.326 63.0001 149.776 63.4981 150.088 64.1461C150.4 64.7941 150.556 65.5681 150.556 66.4681V67.0801H143.788V65.9641H149.332L149.026 66.2161C149.026 65.3161 148.828 64.6201 148.432 64.1281C148.036 63.6361 147.466 63.3901 146.722 63.3901C146.158 63.3901 145.678 63.5221 145.282 63.7861C144.898 64.0501 144.604 64.4161 144.4 64.8841C144.196 65.3521 144.094 65.8981 144.094 66.5221V66.6301C144.094 67.3261 144.202 67.9141 144.418 68.3941C144.646 68.8621 144.976 69.2161 145.408 69.4561C145.84 69.6961 146.374 69.8161 147.01 69.8161C147.514 69.8161 148.006 69.7381 148.486 69.5821C148.978 69.4141 149.44 69.1561 149.872 68.8081L150.412 70.0681C150.016 70.4281 149.506 70.7101 148.882 70.9141C148.258 71.1181 147.628 71.2201 146.992 71.2201ZM152.574 71.0581V62.2741H154.338V64.1461H154.14C154.296 63.7141 154.512 63.3481 154.788 63.0481C155.064 62.7481 155.394 62.5201 155.778 62.3641C156.174 62.1961 156.606 62.1121 157.074 62.1121C157.806 62.1121 158.4 62.2861 158.856 62.6341C159.312 62.9821 159.624 63.5161 159.792 64.2361H159.54C159.768 63.5761 160.158 63.0601 160.71 62.6881C161.262 62.3041 161.904 62.1121 162.636 62.1121C163.308 62.1121 163.86 62.2441 164.292 62.5081C164.724 62.7601 165.048 63.1501 165.264 63.6781C165.48 64.1941 165.588 64.8481 165.588 65.6401V71.0581H163.77V65.7301C163.77 64.9861 163.638 64.4401 163.374 64.0921C163.122 63.7441 162.702 63.5701 162.114 63.5701C161.682 63.5701 161.304 63.6721 160.98 63.8761C160.656 64.0801 160.404 64.3801 160.224 64.7761C160.056 65.1601 159.972 65.6161 159.972 66.1441V71.0581H158.154V65.7301C158.154 64.9861 158.028 64.4401 157.776 64.0921C157.524 63.7441 157.104 63.5701 156.516 63.5701C156.072 63.5701 155.688 63.6721 155.364 63.8761C155.052 64.0801 154.812 64.3801 154.644 64.7761C154.476 65.1601 154.392 65.6161 154.392 66.1441V71.0581H152.574Z" fill="#F8F9FA"/>
</svg>
