<svg width="219" height="40" viewBox="0 0 219 40" fill="none" xmlns="http://www.w3.org/2000/svg">
<mask id="path-1-inside-1_342_155" fill="white">
<path fill-rule="evenodd" clip-rule="evenodd" d="M8.69839 0.234476C7.69918 0.641791 1.38871 6.83944 0.755758 8.03487C0.160627 9.15886 0.165802 10.5874 0.768046 11.3836C1.41167 12.2344 1.37934 12.7316 0.616757 13.7007C-0.264141 14.8209 -0.198194 16.3602 0.793908 17.8221C1.2468 18.4896 1.69905 19.4432 1.79862 19.9414C2.11154 21.5047 3.58821 22.6038 5.59989 22.7709L7.36492 22.917L7.30415 24.6484C7.25178 26.1513 7.36169 26.4979 8.13946 27.2769C8.96961 28.1087 9.25635 28.1824 12.0503 28.2845L15.0654 28.3951L15.6134 29.6374C16.4315 31.4913 18.0715 32.7795 19.9183 33.0184C20.7704 33.129 22.0276 33.2994 22.7126 33.3976C23.4095 33.4975 24.3871 33.9598 24.9331 34.4476C25.8053 35.227 25.9262 35.5671 26.0762 37.6596L26.2436 40L28.5427 39.9059L30.8421 39.8119L30.9358 36.7518C31.0383 33.4183 31.1602 33.1978 32.9058 33.1898C36.9689 33.1713 39.6498 29.9345 38.8603 26C38.5623 24.514 38.5846 24.4429 39.6679 23.4139C42.5902 20.6377 43.2325 18.8035 41.9934 16.7714C41.5771 16.0884 41.3482 15.1428 41.3482 14.1055C41.3482 12.7222 41.1901 12.323 40.2168 11.2455C39.5945 10.5567 39.0853 9.69452 39.0853 9.32987C39.0853 8.96491 38.7404 8.25501 38.3189 7.75266C37.8977 7.24998 37.4522 6.37781 37.3294 5.81468C36.8771 3.74158 35.3723 2.79797 32.5182 2.79797C30.994 2.79797 30.7613 2.69647 29.9505 1.68077C29.0014 0.490826 27.4471 -0.0367435 26.1266 0.382532C25.7248 0.509898 24.6839 1.28024 23.814 2.0939C22.5393 3.28642 22.1744 3.48265 21.9355 3.10507C21.7722 2.84711 21.6368 2.47988 21.6339 2.2885C21.6313 2.09745 21.2537 1.58831 20.7947 1.15708C20.1517 0.553216 19.606 0.37348 18.4132 0.37348C17.0354 0.37348 16.6982 0.528324 15.3321 1.78744L13.7982 3.20141L13.2955 2.16372C12.4502 0.418091 10.3797 -0.450846 8.69839 0.234476ZM5.46251 4.59371C1.24001 8.75446 0.960387 9.20283 1.66511 10.6805C2.00065 11.3836 2.4723 11.8197 3.00827 11.9221C4.02494 12.1167 4.17268 11.9803 4.17268 10.8466C4.17268 9.42491 4.72514 8.33324 6.25095 6.74116C7.44994 5.4898 7.74929 5.32203 8.1663 5.66792C8.59624 6.02513 8.47986 6.25303 7.26859 7.4281C5.78997 8.86243 5.14247 9.86261 5.14247 10.7115C5.14247 11.6108 6.63854 12.8192 7.75155 12.8192C8.63083 12.8192 9.30548 12.2771 12.5766 8.94098C15.6735 5.78268 16.4487 5.14649 16.7525 5.51275C17.0516 5.87319 16.6038 6.49871 14.4974 8.6633C11.0317 12.225 10.6794 13.2223 12.3406 14.7698C13.2697 15.6352 14.5973 15.5679 15.7514 14.5972C16.2796 14.1527 16.8725 13.789 17.069 13.789C17.754 13.789 17.4194 14.7071 16.4319 15.5382C14.5136 17.1526 11.0427 16.4149 10.5064 14.2791C10.2821 13.3849 9.79556 13.2744 8.56133 13.8365C7.91383 14.1317 7.46319 14.0987 6.35342 13.6749C4.62492 13.0148 3.76019 13.0048 2.54988 13.6306C1.36447 14.2435 0.8647 15.1538 1.13075 16.2145C1.4524 17.4962 2.45582 17.9914 4.72966 17.9914C6.54318 17.9914 6.7588 18.06 6.7588 18.638C6.7588 19.2127 6.54318 19.2845 4.81921 19.2845C3.75243 19.2845 2.87961 19.4103 2.87961 19.5641C2.87961 19.718 3.18122 20.2271 3.54974 20.6956C4.17235 21.4872 4.39993 21.5474 6.76979 21.5474H9.32003L9.66366 20.2718C10.264 18.0422 11.1038 17.6682 15.5115 17.6682C17.6105 17.6682 19.3978 17.5554 19.4832 17.4173C19.5685 17.2793 19.479 16.57 19.2847 15.8414C18.8337 14.1523 19.3898 12.6695 20.795 11.8122C21.6238 11.307 22.4456 11.2051 25.7022 11.2042C29.5193 11.2029 29.6453 11.1799 30.9293 10.2496C32.0123 9.46532 32.3097 9.37448 32.61 9.73622C32.8967 10.0818 32.7173 10.3727 31.774 11.0936C30.6184 11.9761 30.4018 12.0172 26.072 12.1727C21.8281 12.3249 21.5356 12.3779 20.9534 13.0975C20.194 14.036 20.1514 15.821 20.8709 16.5406C21.7486 17.4183 22.8167 17.6682 25.6908 17.6682C27.8991 17.6682 28.4176 17.7603 28.4176 18.1531C28.4176 18.5711 27.3026 18.638 20.3214 18.638H12.2249L11.4316 19.4316C10.9952 19.868 10.638 20.5834 10.638 21.0214C10.638 23.4326 11.6207 23.8102 17.8953 23.8102C22.1482 23.8102 22.9221 23.8849 22.9221 24.2951C22.9221 24.6442 22.5649 24.78 21.6474 24.78C20.6964 24.78 20.2448 24.9627 19.8695 25.4986C19.1618 26.5088 19.2397 27.1664 20.2031 28.311L21.04 29.3057H27.1384H33.2371L34.0767 28.4662C35.124 27.4188 35.0187 27.0849 33.4715 26.5531C32.3449 26.1659 32.1177 26.1969 30.6985 26.9333C29.2603 27.6794 29.0767 27.703 28.0578 27.2721C26.2401 26.503 25.6637 25.6043 25.7118 23.6134L25.7539 21.8706H20.1355C15.357 21.8706 14.5172 21.7982 14.5172 21.3857C14.5172 20.9681 15.6082 20.9008 22.3968 20.9008C26.7305 20.9008 30.7409 20.8081 31.3085 20.6943C33.21 20.3141 33.991 17.9271 32.6527 16.5862C32.0352 15.9672 31.5035 15.8724 27.8441 15.7286C24.4747 15.596 23.7302 15.4794 23.7302 15.0821C23.7302 14.6777 24.411 14.5936 27.8305 14.5755L31.9311 14.5538L34.2212 12.3935C35.7787 10.9242 36.7679 10.2331 37.3135 10.2331C38.3228 10.2331 38.3509 9.5665 37.3882 8.47386C36.7685 7.77076 36.3505 7.63661 34.5638 7.56646C32.8644 7.49987 32.4464 7.37703 32.3582 6.91896C32.2641 6.43115 32.5176 6.35389 34.2128 6.35389C36.3822 6.35389 36.7252 5.93332 35.5294 4.73756C35.0296 4.23779 34.452 4.09103 32.9824 4.09103C31.1618 4.09103 31.0648 4.13306 30.6669 5.0938C30.2001 6.22038 28.3639 8.29348 27.8328 8.29348C26.9622 8.29348 27.1808 7.51441 28.3914 6.30411C29.3864 5.30877 29.7106 4.73013 29.7106 3.94783C29.7106 2.57847 28.5744 1.50491 27.1252 1.50491C26.1496 1.50491 25.4775 2.05996 20.6689 6.83879C17.7165 9.77242 15.1249 12.1727 14.9093 12.1727C14.0235 12.1727 14.6788 11.2371 17.7498 8.11633C20.2296 5.59648 20.9825 4.62862 20.9825 3.96173C20.9825 2.73526 19.6564 1.50491 18.3349 1.50491C17.413 1.50491 16.7787 1.9995 13.4769 5.29261C10.4799 8.28185 9.59578 8.99691 9.28318 8.68431C8.97058 8.37171 9.2557 7.91526 10.6354 6.51811C12.1072 5.02786 12.3836 4.56171 12.3836 3.56961C12.3836 2.15112 11.3783 1.18164 9.9074 1.18164C9.09375 1.18164 8.32987 1.76805 5.46251 4.59371ZM37.1457 11.4314C36.4132 11.6897 33.2666 14.8386 33.2666 15.3135C33.2666 15.5417 33.4065 15.7286 33.5772 15.7286C34.1785 15.7286 34.624 18.2717 34.2312 19.4617C33.6681 21.1682 32.4206 21.8706 29.9534 21.8706C28.3468 21.8706 27.7491 22.0058 27.3363 22.4619C26.6089 23.2655 26.6639 24.5182 27.4714 25.5445C28.6946 27.0998 29.505 26.7513 33.1751 23.0939C35.7926 20.4854 36.5723 19.8748 36.8855 20.188C37.1984 20.501 36.86 21.0101 35.2744 22.6103C34.1701 23.7242 33.2666 24.7978 33.2666 24.996C33.2666 25.5151 34.709 25.8015 35.5879 25.4566C36.0001 25.295 37.4651 23.9803 38.8429 22.5353C41.0996 20.1686 41.3482 19.7817 41.3482 18.6338C41.3482 17.0798 40.2766 16.1715 38.8422 16.5093C37.2463 16.8856 36.9841 16.8665 36.9841 16.3751C36.9841 16.08 37.6164 15.6814 38.6004 15.3565C39.9944 14.8962 40.23 14.6945 40.3128 13.8915C40.4595 12.4685 38.5067 10.9514 37.1457 11.4314ZM8.72199 23.6922C7.83398 24.8211 7.87697 25.4867 8.90399 26.514C9.68112 27.2908 9.98208 27.3661 12.3086 27.3661C14.9807 27.3661 15.0771 27.3131 15.2406 25.7498C15.3211 24.9817 15.2338 24.9368 13.4756 24.845C11.9281 24.7642 11.4701 24.5925 10.6719 23.7944C10.1473 23.2697 9.64459 22.8404 9.55504 22.8404C9.46517 22.8404 9.09019 23.2238 8.72199 23.6922ZM16.7574 25.2921C16.2279 25.9302 16.2078 28.5784 16.7254 29.5349C17.5672 31.0908 19.2666 31.9892 21.7509 32.1925C25.3792 32.4893 26.8316 33.802 27.1245 37.0496L27.2861 38.8421H28.4176H29.549L29.6421 35.8292C29.722 33.2538 29.6392 32.6609 29.0728 31.7444C28.2605 30.4297 27.7565 30.2856 23.9565 30.2801C19.543 30.2736 18.3964 29.436 18.3964 26.2195C18.3964 25.0267 18.2923 24.78 17.7893 24.78C17.4557 24.78 16.9911 25.0105 16.7574 25.2921ZM36.356 26.4684C36.0793 26.8635 35.8527 27.434 35.8527 27.7366C35.8527 28.0389 35.405 28.7339 34.858 29.2808C34.0498 30.0893 33.5805 30.2826 32.3527 30.3137C31.5219 30.335 30.6604 30.3285 30.438 30.2998C29.9082 30.2309 29.9221 30.9689 30.4648 31.7112C30.824 32.2022 31.228 32.2765 32.8845 32.1569C35.3089 31.9814 37.0546 30.7695 37.7616 28.7704C38.5723 26.4781 37.5369 24.7823 36.356 26.4684Z"/>
</mask>
<path fill-rule="evenodd" clip-rule="evenodd" d="M8.69839 0.234476C7.69918 0.641791 1.38871 6.83944 0.755758 8.03487C0.160627 9.15886 0.165802 10.5874 0.768046 11.3836C1.41167 12.2344 1.37934 12.7316 0.616757 13.7007C-0.264141 14.8209 -0.198194 16.3602 0.793908 17.8221C1.2468 18.4896 1.69905 19.4432 1.79862 19.9414C2.11154 21.5047 3.58821 22.6038 5.59989 22.7709L7.36492 22.917L7.30415 24.6484C7.25178 26.1513 7.36169 26.4979 8.13946 27.2769C8.96961 28.1087 9.25635 28.1824 12.0503 28.2845L15.0654 28.3951L15.6134 29.6374C16.4315 31.4913 18.0715 32.7795 19.9183 33.0184C20.7704 33.129 22.0276 33.2994 22.7126 33.3976C23.4095 33.4975 24.3871 33.9598 24.9331 34.4476C25.8053 35.227 25.9262 35.5671 26.0762 37.6596L26.2436 40L28.5427 39.9059L30.8421 39.8119L30.9358 36.7518C31.0383 33.4183 31.1602 33.1978 32.9058 33.1898C36.9689 33.1713 39.6498 29.9345 38.8603 26C38.5623 24.514 38.5846 24.4429 39.6679 23.4139C42.5902 20.6377 43.2325 18.8035 41.9934 16.7714C41.5771 16.0884 41.3482 15.1428 41.3482 14.1055C41.3482 12.7222 41.1901 12.323 40.2168 11.2455C39.5945 10.5567 39.0853 9.69452 39.0853 9.32987C39.0853 8.96491 38.7404 8.25501 38.3189 7.75266C37.8977 7.24998 37.4522 6.37781 37.3294 5.81468C36.8771 3.74158 35.3723 2.79797 32.5182 2.79797C30.994 2.79797 30.7613 2.69647 29.9505 1.68077C29.0014 0.490826 27.4471 -0.0367435 26.1266 0.382532C25.7248 0.509898 24.6839 1.28024 23.814 2.0939C22.5393 3.28642 22.1744 3.48265 21.9355 3.10507C21.7722 2.84711 21.6368 2.47988 21.6339 2.2885C21.6313 2.09745 21.2537 1.58831 20.7947 1.15708C20.1517 0.553216 19.606 0.37348 18.4132 0.37348C17.0354 0.37348 16.6982 0.528324 15.3321 1.78744L13.7982 3.20141L13.2955 2.16372C12.4502 0.418091 10.3797 -0.450846 8.69839 0.234476ZM5.46251 4.59371C1.24001 8.75446 0.960387 9.20283 1.66511 10.6805C2.00065 11.3836 2.4723 11.8197 3.00827 11.9221C4.02494 12.1167 4.17268 11.9803 4.17268 10.8466C4.17268 9.42491 4.72514 8.33324 6.25095 6.74116C7.44994 5.4898 7.74929 5.32203 8.1663 5.66792C8.59624 6.02513 8.47986 6.25303 7.26859 7.4281C5.78997 8.86243 5.14247 9.86261 5.14247 10.7115C5.14247 11.6108 6.63854 12.8192 7.75155 12.8192C8.63083 12.8192 9.30548 12.2771 12.5766 8.94098C15.6735 5.78268 16.4487 5.14649 16.7525 5.51275C17.0516 5.87319 16.6038 6.49871 14.4974 8.6633C11.0317 12.225 10.6794 13.2223 12.3406 14.7698C13.2697 15.6352 14.5973 15.5679 15.7514 14.5972C16.2796 14.1527 16.8725 13.789 17.069 13.789C17.754 13.789 17.4194 14.7071 16.4319 15.5382C14.5136 17.1526 11.0427 16.4149 10.5064 14.2791C10.2821 13.3849 9.79556 13.2744 8.56133 13.8365C7.91383 14.1317 7.46319 14.0987 6.35342 13.6749C4.62492 13.0148 3.76019 13.0048 2.54988 13.6306C1.36447 14.2435 0.8647 15.1538 1.13075 16.2145C1.4524 17.4962 2.45582 17.9914 4.72966 17.9914C6.54318 17.9914 6.7588 18.06 6.7588 18.638C6.7588 19.2127 6.54318 19.2845 4.81921 19.2845C3.75243 19.2845 2.87961 19.4103 2.87961 19.5641C2.87961 19.718 3.18122 20.2271 3.54974 20.6956C4.17235 21.4872 4.39993 21.5474 6.76979 21.5474H9.32003L9.66366 20.2718C10.264 18.0422 11.1038 17.6682 15.5115 17.6682C17.6105 17.6682 19.3978 17.5554 19.4832 17.4173C19.5685 17.2793 19.479 16.57 19.2847 15.8414C18.8337 14.1523 19.3898 12.6695 20.795 11.8122C21.6238 11.307 22.4456 11.2051 25.7022 11.2042C29.5193 11.2029 29.6453 11.1799 30.9293 10.2496C32.0123 9.46532 32.3097 9.37448 32.61 9.73622C32.8967 10.0818 32.7173 10.3727 31.774 11.0936C30.6184 11.9761 30.4018 12.0172 26.072 12.1727C21.8281 12.3249 21.5356 12.3779 20.9534 13.0975C20.194 14.036 20.1514 15.821 20.8709 16.5406C21.7486 17.4183 22.8167 17.6682 25.6908 17.6682C27.8991 17.6682 28.4176 17.7603 28.4176 18.1531C28.4176 18.5711 27.3026 18.638 20.3214 18.638H12.2249L11.4316 19.4316C10.9952 19.868 10.638 20.5834 10.638 21.0214C10.638 23.4326 11.6207 23.8102 17.8953 23.8102C22.1482 23.8102 22.9221 23.8849 22.9221 24.2951C22.9221 24.6442 22.5649 24.78 21.6474 24.78C20.6964 24.78 20.2448 24.9627 19.8695 25.4986C19.1618 26.5088 19.2397 27.1664 20.2031 28.311L21.04 29.3057H27.1384H33.2371L34.0767 28.4662C35.124 27.4188 35.0187 27.0849 33.4715 26.5531C32.3449 26.1659 32.1177 26.1969 30.6985 26.9333C29.2603 27.6794 29.0767 27.703 28.0578 27.2721C26.2401 26.503 25.6637 25.6043 25.7118 23.6134L25.7539 21.8706H20.1355C15.357 21.8706 14.5172 21.7982 14.5172 21.3857C14.5172 20.9681 15.6082 20.9008 22.3968 20.9008C26.7305 20.9008 30.7409 20.8081 31.3085 20.6943C33.21 20.3141 33.991 17.9271 32.6527 16.5862C32.0352 15.9672 31.5035 15.8724 27.8441 15.7286C24.4747 15.596 23.7302 15.4794 23.7302 15.0821C23.7302 14.6777 24.411 14.5936 27.8305 14.5755L31.9311 14.5538L34.2212 12.3935C35.7787 10.9242 36.7679 10.2331 37.3135 10.2331C38.3228 10.2331 38.3509 9.5665 37.3882 8.47386C36.7685 7.77076 36.3505 7.63661 34.5638 7.56646C32.8644 7.49987 32.4464 7.37703 32.3582 6.91896C32.2641 6.43115 32.5176 6.35389 34.2128 6.35389C36.3822 6.35389 36.7252 5.93332 35.5294 4.73756C35.0296 4.23779 34.452 4.09103 32.9824 4.09103C31.1618 4.09103 31.0648 4.13306 30.6669 5.0938C30.2001 6.22038 28.3639 8.29348 27.8328 8.29348C26.9622 8.29348 27.1808 7.51441 28.3914 6.30411C29.3864 5.30877 29.7106 4.73013 29.7106 3.94783C29.7106 2.57847 28.5744 1.50491 27.1252 1.50491C26.1496 1.50491 25.4775 2.05996 20.6689 6.83879C17.7165 9.77242 15.1249 12.1727 14.9093 12.1727C14.0235 12.1727 14.6788 11.2371 17.7498 8.11633C20.2296 5.59648 20.9825 4.62862 20.9825 3.96173C20.9825 2.73526 19.6564 1.50491 18.3349 1.50491C17.413 1.50491 16.7787 1.9995 13.4769 5.29261C10.4799 8.28185 9.59578 8.99691 9.28318 8.68431C8.97058 8.37171 9.2557 7.91526 10.6354 6.51811C12.1072 5.02786 12.3836 4.56171 12.3836 3.56961C12.3836 2.15112 11.3783 1.18164 9.9074 1.18164C9.09375 1.18164 8.32987 1.76805 5.46251 4.59371ZM37.1457 11.4314C36.4132 11.6897 33.2666 14.8386 33.2666 15.3135C33.2666 15.5417 33.4065 15.7286 33.5772 15.7286C34.1785 15.7286 34.624 18.2717 34.2312 19.4617C33.6681 21.1682 32.4206 21.8706 29.9534 21.8706C28.3468 21.8706 27.7491 22.0058 27.3363 22.4619C26.6089 23.2655 26.6639 24.5182 27.4714 25.5445C28.6946 27.0998 29.505 26.7513 33.1751 23.0939C35.7926 20.4854 36.5723 19.8748 36.8855 20.188C37.1984 20.501 36.86 21.0101 35.2744 22.6103C34.1701 23.7242 33.2666 24.7978 33.2666 24.996C33.2666 25.5151 34.709 25.8015 35.5879 25.4566C36.0001 25.295 37.4651 23.9803 38.8429 22.5353C41.0996 20.1686 41.3482 19.7817 41.3482 18.6338C41.3482 17.0798 40.2766 16.1715 38.8422 16.5093C37.2463 16.8856 36.9841 16.8665 36.9841 16.3751C36.9841 16.08 37.6164 15.6814 38.6004 15.3565C39.9944 14.8962 40.23 14.6945 40.3128 13.8915C40.4595 12.4685 38.5067 10.9514 37.1457 11.4314ZM8.72199 23.6922C7.83398 24.8211 7.87697 25.4867 8.90399 26.514C9.68112 27.2908 9.98208 27.3661 12.3086 27.3661C14.9807 27.3661 15.0771 27.3131 15.2406 25.7498C15.3211 24.9817 15.2338 24.9368 13.4756 24.845C11.9281 24.7642 11.4701 24.5925 10.6719 23.7944C10.1473 23.2697 9.64459 22.8404 9.55504 22.8404C9.46517 22.8404 9.09019 23.2238 8.72199 23.6922ZM16.7574 25.2921C16.2279 25.9302 16.2078 28.5784 16.7254 29.5349C17.5672 31.0908 19.2666 31.9892 21.7509 32.1925C25.3792 32.4893 26.8316 33.802 27.1245 37.0496L27.2861 38.8421H28.4176H29.549L29.6421 35.8292C29.722 33.2538 29.6392 32.6609 29.0728 31.7444C28.2605 30.4297 27.7565 30.2856 23.9565 30.2801C19.543 30.2736 18.3964 29.436 18.3964 26.2195C18.3964 25.0267 18.2923 24.78 17.7893 24.78C17.4557 24.78 16.9911 25.0105 16.7574 25.2921ZM36.356 26.4684C36.0793 26.8635 35.8527 27.434 35.8527 27.7366C35.8527 28.0389 35.405 28.7339 34.858 29.2808C34.0498 30.0893 33.5805 30.2826 32.3527 30.3137C31.5219 30.335 30.6604 30.3285 30.438 30.2998C29.9082 30.2309 29.9221 30.9689 30.4648 31.7112C30.824 32.2022 31.228 32.2765 32.8845 32.1569C35.3089 31.9814 37.0546 30.7695 37.7616 28.7704C38.5723 26.4781 37.5369 24.7823 36.356 26.4684Z" stroke="#F17732" stroke-width="8" mask="url(#path-1-inside-1_342_155)"/>
<path d="M52.9667 25V12.31H57.4487C58.8407 12.31 60.0227 12.556 60.9947 13.048C61.9667 13.528 62.7047 14.242 63.2087 15.19C63.7247 16.126 63.9827 17.278 63.9827 18.646C63.9827 20.014 63.7247 21.172 63.2087 22.12C62.7047 23.056 61.9667 23.77 60.9947 24.262C60.0227 24.754 58.8407 25 57.4487 25H52.9667ZM54.8387 23.434H57.3407C58.9127 23.434 60.0887 23.038 60.8687 22.246C61.6487 21.442 62.0387 20.242 62.0387 18.646C62.0387 17.05 61.6427 15.856 60.8507 15.064C60.0707 14.272 58.9007 13.876 57.3407 13.876H54.8387V23.434ZM66.2863 25V16.216H68.0503V18.322H67.8703C68.0623 17.602 68.4043 17.056 68.8963 16.684C69.4003 16.312 70.0663 16.096 70.8943 16.036L71.4883 16L71.6143 17.548L70.5163 17.656C69.7363 17.728 69.1423 17.974 68.7343 18.394C68.3263 18.814 68.1223 19.39 68.1223 20.122V25H66.2863ZM72.3984 25V22.858H74.5404V25H72.3984ZM81.8484 25V12.31H83.4144L88.4004 21.598H87.8424L92.7924 12.31H94.3224V25H92.6484V14.956H93.0444L88.6704 23.056H87.5364L83.1084 14.938H83.5404V25H81.8484ZM99.9263 25.162C99.3143 25.162 98.7623 25.042 98.2703 24.802C97.7903 24.562 97.4123 24.238 97.1363 23.83C96.8603 23.422 96.7223 22.96 96.7223 22.444C96.7223 21.796 96.8843 21.286 97.2083 20.914C97.5443 20.53 98.0903 20.26 98.8463 20.104C99.6143 19.936 100.646 19.852 101.942 19.852H102.788V20.968H101.96C101.312 20.968 100.766 20.992 100.322 21.04C99.8783 21.088 99.5243 21.166 99.2603 21.274C98.9963 21.37 98.8043 21.508 98.6843 21.688C98.5763 21.868 98.5223 22.084 98.5223 22.336C98.5223 22.792 98.6783 23.164 98.9903 23.452C99.3023 23.728 99.7343 23.866 100.286 23.866C100.73 23.866 101.12 23.764 101.456 23.56C101.792 23.344 102.056 23.056 102.248 22.696C102.452 22.336 102.554 21.922 102.554 21.454V19.384C102.554 18.7 102.41 18.208 102.122 17.908C101.834 17.608 101.36 17.458 100.7 17.458C100.196 17.458 99.6923 17.536 99.1883 17.692C98.6843 17.836 98.1683 18.07 97.6403 18.394L97.0823 17.116C97.3943 16.9 97.7543 16.714 98.1623 16.558C98.5703 16.402 98.9963 16.282 99.4403 16.198C99.8963 16.102 100.334 16.054 100.754 16.054C101.558 16.054 102.218 16.18 102.734 16.432C103.262 16.684 103.652 17.068 103.904 17.584C104.156 18.1 104.282 18.766 104.282 19.582V25H102.572V23.038H102.734C102.638 23.482 102.458 23.866 102.194 24.19C101.942 24.502 101.624 24.742 101.24 24.91C100.856 25.078 100.418 25.162 99.9263 25.162ZM110.53 25.162C109.438 25.162 108.616 24.88 108.064 24.316C107.524 23.752 107.254 22.936 107.254 21.868V17.62H105.544V16.216H107.254V13.57H109.072V16.216H111.79V17.62H109.072V21.724C109.072 22.36 109.204 22.84 109.468 23.164C109.744 23.488 110.188 23.65 110.8 23.65C110.98 23.65 111.16 23.626 111.34 23.578C111.532 23.53 111.718 23.482 111.898 23.434L112.186 24.802C112.006 24.91 111.754 24.994 111.43 25.054C111.118 25.126 110.818 25.162 110.53 25.162ZM113.361 25V12.31H115.179V18.088H114.927C115.191 17.416 115.605 16.912 116.169 16.576C116.733 16.228 117.381 16.054 118.113 16.054C118.809 16.054 119.385 16.186 119.841 16.45C120.309 16.702 120.657 17.092 120.885 17.62C121.113 18.136 121.227 18.79 121.227 19.582V25H119.409V19.69C119.409 19.186 119.343 18.778 119.211 18.466C119.079 18.142 118.881 17.902 118.617 17.746C118.353 17.59 118.011 17.512 117.591 17.512C117.111 17.512 116.685 17.614 116.313 17.818C115.953 18.022 115.671 18.316 115.467 18.7C115.275 19.084 115.179 19.528 115.179 20.032V25H113.361ZM127.854 25.162C126.894 25.162 126.066 24.982 125.37 24.622C124.686 24.25 124.152 23.728 123.768 23.056C123.396 22.372 123.21 21.562 123.21 20.626C123.21 19.714 123.396 18.916 123.768 18.232C124.14 17.548 124.65 17.014 125.298 16.63C125.946 16.246 126.684 16.054 127.512 16.054C128.328 16.054 129.024 16.234 129.6 16.594C130.188 16.942 130.638 17.44 130.95 18.088C131.262 18.736 131.418 19.51 131.418 20.41V21.022H124.65V19.906H130.194L129.888 20.158C129.888 19.258 129.69 18.562 129.294 18.07C128.898 17.578 128.328 17.332 127.584 17.332C127.02 17.332 126.54 17.464 126.144 17.728C125.76 17.992 125.466 18.358 125.262 18.826C125.058 19.294 124.956 19.84 124.956 20.464V20.572C124.956 21.268 125.064 21.856 125.28 22.336C125.508 22.804 125.838 23.158 126.27 23.398C126.702 23.638 127.236 23.758 127.872 23.758C128.376 23.758 128.868 23.68 129.348 23.524C129.84 23.356 130.302 23.098 130.734 22.75L131.274 24.01C130.878 24.37 130.368 24.652 129.744 24.856C129.12 25.06 128.49 25.162 127.854 25.162ZM136.532 25.162C135.824 25.162 135.23 25.03 134.75 24.766C134.282 24.502 133.928 24.112 133.688 23.596C133.46 23.068 133.346 22.408 133.346 21.616V16.216H135.164V21.634C135.164 22.102 135.224 22.492 135.344 22.804C135.476 23.116 135.674 23.344 135.938 23.488C136.214 23.632 136.556 23.704 136.964 23.704C137.42 23.704 137.822 23.602 138.17 23.398C138.518 23.194 138.788 22.9 138.98 22.516C139.172 22.132 139.268 21.688 139.268 21.184V16.216H141.086V25H139.322V23.074H139.556C139.316 23.746 138.932 24.262 138.404 24.622C137.876 24.982 137.252 25.162 136.532 25.162ZM146.726 25.162C146.258 25.162 145.802 25.12 145.358 25.036C144.914 24.952 144.506 24.832 144.134 24.676C143.762 24.52 143.432 24.328 143.144 24.1L143.666 22.876C143.966 23.08 144.284 23.26 144.62 23.416C144.956 23.56 145.304 23.668 145.664 23.74C146.036 23.812 146.396 23.848 146.744 23.848C147.38 23.848 147.86 23.734 148.184 23.506C148.508 23.278 148.67 22.972 148.67 22.588C148.67 22.276 148.562 22.036 148.346 21.868C148.13 21.688 147.806 21.55 147.374 21.454L145.664 21.112C144.92 20.956 144.356 20.68 143.972 20.284C143.588 19.888 143.396 19.384 143.396 18.772C143.396 18.22 143.546 17.74 143.846 17.332C144.146 16.924 144.566 16.612 145.106 16.396C145.646 16.168 146.27 16.054 146.978 16.054C147.386 16.054 147.782 16.096 148.166 16.18C148.55 16.264 148.91 16.384 149.246 16.54C149.594 16.696 149.888 16.894 150.128 17.134L149.606 18.358C149.378 18.154 149.114 17.98 148.814 17.836C148.526 17.692 148.226 17.584 147.914 17.512C147.602 17.428 147.29 17.386 146.978 17.386C146.342 17.386 145.862 17.506 145.538 17.746C145.226 17.974 145.07 18.286 145.07 18.682C145.07 18.982 145.166 19.228 145.358 19.42C145.55 19.612 145.85 19.75 146.258 19.834L147.968 20.176C148.748 20.332 149.336 20.596 149.732 20.968C150.14 21.34 150.344 21.844 150.344 22.48C150.344 23.032 150.194 23.512 149.894 23.92C149.594 24.328 149.168 24.64 148.616 24.856C148.076 25.06 147.446 25.162 146.726 25.162ZM160.749 25L156.303 12.31H158.211L161.937 23.272H161.271L165.105 12.31H166.527L170.289 23.272H169.695L173.457 12.31H175.275L170.793 25H169.227L165.591 14.578H165.987L162.315 25H160.749ZM178.782 25.162C178.17 25.162 177.618 25.042 177.126 24.802C176.646 24.562 176.268 24.238 175.992 23.83C175.716 23.422 175.578 22.96 175.578 22.444C175.578 21.796 175.74 21.286 176.064 20.914C176.4 20.53 176.946 20.26 177.702 20.104C178.47 19.936 179.502 19.852 180.798 19.852H181.644V20.968H180.816C180.168 20.968 179.622 20.992 179.178 21.04C178.734 21.088 178.38 21.166 178.116 21.274C177.852 21.37 177.66 21.508 177.54 21.688C177.432 21.868 177.378 22.084 177.378 22.336C177.378 22.792 177.534 23.164 177.846 23.452C178.158 23.728 178.59 23.866 179.142 23.866C179.586 23.866 179.976 23.764 180.312 23.56C180.648 23.344 180.912 23.056 181.104 22.696C181.308 22.336 181.41 21.922 181.41 21.454V19.384C181.41 18.7 181.266 18.208 180.978 17.908C180.69 17.608 180.216 17.458 179.556 17.458C179.052 17.458 178.548 17.536 178.044 17.692C177.54 17.836 177.024 18.07 176.496 18.394L175.938 17.116C176.25 16.9 176.61 16.714 177.018 16.558C177.426 16.402 177.852 16.282 178.296 16.198C178.752 16.102 179.19 16.054 179.61 16.054C180.414 16.054 181.074 16.18 181.59 16.432C182.118 16.684 182.508 17.068 182.76 17.584C183.012 18.1 183.138 18.766 183.138 19.582V25H181.428V23.038H181.59C181.494 23.482 181.314 23.866 181.05 24.19C180.798 24.502 180.48 24.742 180.096 24.91C179.712 25.078 179.274 25.162 178.782 25.162ZM188.72 25.162C188.252 25.162 187.796 25.12 187.352 25.036C186.908 24.952 186.5 24.832 186.128 24.676C185.756 24.52 185.426 24.328 185.138 24.1L185.66 22.876C185.96 23.08 186.278 23.26 186.614 23.416C186.95 23.56 187.298 23.668 187.658 23.74C188.03 23.812 188.39 23.848 188.738 23.848C189.374 23.848 189.854 23.734 190.178 23.506C190.502 23.278 190.664 22.972 190.664 22.588C190.664 22.276 190.556 22.036 190.34 21.868C190.124 21.688 189.8 21.55 189.368 21.454L187.658 21.112C186.914 20.956 186.35 20.68 185.966 20.284C185.582 19.888 185.39 19.384 185.39 18.772C185.39 18.22 185.54 17.74 185.84 17.332C186.14 16.924 186.56 16.612 187.1 16.396C187.64 16.168 188.264 16.054 188.972 16.054C189.38 16.054 189.776 16.096 190.16 16.18C190.544 16.264 190.904 16.384 191.24 16.54C191.588 16.696 191.882 16.894 192.122 17.134L191.6 18.358C191.372 18.154 191.108 17.98 190.808 17.836C190.52 17.692 190.22 17.584 189.908 17.512C189.596 17.428 189.284 17.386 188.972 17.386C188.336 17.386 187.856 17.506 187.532 17.746C187.22 17.974 187.064 18.286 187.064 18.682C187.064 18.982 187.16 19.228 187.352 19.42C187.544 19.612 187.844 19.75 188.252 19.834L189.962 20.176C190.742 20.332 191.33 20.596 191.726 20.968C192.134 21.34 192.338 21.844 192.338 22.48C192.338 23.032 192.188 23.512 191.888 23.92C191.588 24.328 191.162 24.64 190.61 24.856C190.07 25.06 189.44 25.162 188.72 25.162ZM198.483 25.162C197.523 25.162 196.695 24.982 195.999 24.622C195.315 24.25 194.781 23.728 194.397 23.056C194.025 22.372 193.839 21.562 193.839 20.626C193.839 19.714 194.025 18.916 194.397 18.232C194.769 17.548 195.279 17.014 195.927 16.63C196.575 16.246 197.313 16.054 198.141 16.054C198.957 16.054 199.653 16.234 200.229 16.594C200.817 16.942 201.267 17.44 201.579 18.088C201.891 18.736 202.047 19.51 202.047 20.41V21.022H195.279V19.906H200.823L200.517 20.158C200.517 19.258 200.319 18.562 199.923 18.07C199.527 17.578 198.957 17.332 198.213 17.332C197.649 17.332 197.169 17.464 196.773 17.728C196.389 17.992 196.095 18.358 195.891 18.826C195.687 19.294 195.585 19.84 195.585 20.464V20.572C195.585 21.268 195.693 21.856 195.909 22.336C196.137 22.804 196.467 23.158 196.899 23.398C197.331 23.638 197.865 23.758 198.501 23.758C199.005 23.758 199.497 23.68 199.977 23.524C200.469 23.356 200.931 23.098 201.363 22.75L201.903 24.01C201.507 24.37 200.997 24.652 200.373 24.856C199.749 25.06 199.119 25.162 198.483 25.162ZM204.064 25V16.216H205.828V18.088H205.63C205.786 17.656 206.002 17.29 206.278 16.99C206.554 16.69 206.884 16.462 207.268 16.306C207.664 16.138 208.096 16.054 208.564 16.054C209.296 16.054 209.89 16.228 210.346 16.576C210.802 16.924 211.114 17.458 211.282 18.178H211.03C211.258 17.518 211.648 17.002 212.2 16.63C212.752 16.246 213.394 16.054 214.126 16.054C214.798 16.054 215.35 16.186 215.782 16.45C216.214 16.702 216.538 17.092 216.754 17.62C216.97 18.136 217.078 18.79 217.078 19.582V25H215.26V19.672C215.26 18.928 215.128 18.382 214.864 18.034C214.612 17.686 214.192 17.512 213.604 17.512C213.172 17.512 212.794 17.614 212.47 17.818C212.146 18.022 211.894 18.322 211.714 18.718C211.546 19.102 211.462 19.558 211.462 20.086V25H209.644V19.672C209.644 18.928 209.518 18.382 209.266 18.034C209.014 17.686 208.594 17.512 208.006 17.512C207.562 17.512 207.178 17.614 206.854 17.818C206.542 18.022 206.302 18.322 206.134 18.718C205.966 19.102 205.882 19.558 205.882 20.086V25H204.064Z" fill="#022451"/>
</svg>
