<svg xmlns="http://www.w3.org/2000/svg" width="136" height="22" viewBox="0 0 136 22" fill="none">
  <path d="M12 1.45508L15.09 7.71508L22 8.72508L17 13.5951L18.18 20.4751L12 17.2251L5.82 20.4751L7 13.5951L2 8.72508L8.91 7.71508L12 1.45508Z" fill="#FF8F50" stroke="#FF8F50" stroke-width="2.3" stroke-linecap="round" stroke-linejoin="round"/>
  <path d="M40 1.45508L43.09 7.71508L50 8.72508L45 13.5951L46.18 20.4751L40 17.2251L33.82 20.4751L35 13.5951L30 8.72508L36.91 7.71508L40 1.45508Z" fill="#FF8F50" stroke="#FF8F50" stroke-width="2.3" stroke-linecap="round" stroke-linejoin="round"/>
  <path d="M68 1.45508L71.09 7.71508L78 8.72508L73 13.5951L74.18 20.4751L68 17.2251L61.82 20.4751L63 13.5951L58 8.72508L64.91 7.71508L68 1.45508Z" fill="#FF8F50" stroke="#FF8F50" stroke-width="2.3" stroke-linecap="round" stroke-linejoin="round"/>
  <path d="M96 1.45508L99.09 7.71508L106 8.72508L101 13.5951L102.18 20.4751L96 17.2251L89.82 20.4751L91 13.5951L86 8.72508L92.91 7.71508L96 1.45508Z" fill="#FF8F50" stroke="#FF8F50" stroke-width="2.3" stroke-linecap="round" stroke-linejoin="round"/>
  <path d="M124 1.45508L127.09 7.71508L134 8.72508L129 13.5951L130.18 20.4751L124 17.2251L117.82 20.4751L119 13.5951L114 8.72508L120.91 7.71508L124 1.45508Z" fill="#FF8F50" stroke="#FF8F50" stroke-width="2.3" stroke-linecap="round" stroke-linejoin="round"/>
</svg>